<svg width="42" height="42" viewBox="0 0 42 42" fill="none" xmlns="http://www.w3.org/2000/svg">
<g clip-path="url(#clip0_933_863)">
<path d="M27.2998 21.0001C27.2998 22.671 26.6361 24.2734 25.4546 25.4549C24.2731 26.6363 22.6707 27.3001 20.9998 27.3001C19.329 27.3001 17.7265 26.6363 16.5451 25.4549C15.3636 24.2734 14.6998 22.671 14.6998 21.0001C14.6998 20.641 14.7376 20.2903 14.8027 19.9501H12.5998V28.3438C12.5998 28.9276 13.0723 29.4001 13.6561 29.4001H28.3456C28.6254 29.3995 28.8936 29.288 29.0912 29.09C29.2888 28.8919 29.3998 28.6236 29.3998 28.3438V19.9501H27.1969C27.262 20.2903 27.2998 20.641 27.2998 21.0001ZM20.9998 25.2001C21.5515 25.1999 22.0978 25.0911 22.6074 24.8799C23.1171 24.6686 23.5801 24.3591 23.9701 23.9689C24.3601 23.5787 24.6695 23.1155 24.8805 22.6057C25.0915 22.096 25.2 21.5497 25.1998 20.998C25.1997 20.4463 25.0909 19.9 24.8797 19.3904C24.6684 18.8808 24.3588 18.4177 23.9686 18.0277C23.5784 17.6377 23.1152 17.3284 22.6055 17.1174C22.0957 16.9064 21.5494 16.7978 20.9977 16.798C19.8836 16.7983 18.8151 17.2411 18.0275 18.0292C17.2398 18.8172 16.7975 19.8859 16.7977 21.0001C16.798 22.1143 17.2409 23.1827 18.0289 23.9704C18.817 24.758 19.8857 25.2004 20.9998 25.2001ZM26.0398 16.5901H28.5577C28.725 16.5901 28.8855 16.5238 29.004 16.4057C29.1224 16.2876 29.1893 16.1274 29.1898 15.9601V13.4422C29.1898 13.2745 29.1232 13.1138 29.0047 12.9952C28.8862 12.8767 28.7254 12.8101 28.5577 12.8101H26.0398C25.8722 12.8101 25.7114 12.8767 25.5929 12.9952C25.4743 13.1138 25.4077 13.2745 25.4077 13.4422V15.9601C25.4098 16.3066 25.6933 16.5901 26.0398 16.5901ZM20.9998 0.840088C15.6531 0.840088 10.5253 2.96408 6.74457 6.74481C2.96384 10.5255 0.839844 15.6533 0.839844 21.0001C0.839844 26.3469 2.96384 31.4746 6.74457 35.2554C10.5253 39.0361 15.6531 41.1601 20.9998 41.1601C23.6473 41.1601 26.2688 40.6386 28.7147 39.6255C31.1607 38.6124 33.3831 37.1274 35.2551 35.2554C37.1271 33.3833 38.6121 31.1609 39.6253 28.715C40.6384 26.2691 41.1598 23.6475 41.1598 21.0001C41.1598 18.3526 40.6384 15.7311 39.6253 13.2852C38.6121 10.8393 37.1271 8.61684 35.2551 6.74481C33.3831 4.87279 31.1607 3.38781 28.7147 2.37468C26.2688 1.36154 23.6473 0.840088 20.9998 0.840088ZM31.4998 29.167C31.4998 30.4501 30.4498 31.5001 29.1667 31.5001H12.8329C11.5498 31.5001 10.4998 30.4501 10.4998 29.167V12.8332C10.4998 11.5501 11.5498 10.5001 12.8329 10.5001H29.1667C30.4498 10.5001 31.4998 11.5501 31.4998 12.8332V29.167Z" fill="#AED6F0"/>
</g>
<defs>
<clipPath id="clip0_933_863">
<rect width="42" height="42" fill="white"/>
</clipPath>
</defs>
</svg>
