<svg width="24" height="32" viewBox="0 0 24 32" fill="none" xmlns="http://www.w3.org/2000/svg">
<path d="M0.686456 17.316L21.4893 31.7157C21.7293 31.8818 22.0103 31.9791 22.3017 31.997C22.5931 32.0149 22.8838 31.9527 23.1424 31.8173C23.401 31.6818 23.6176 31.4782 23.7688 31.2285C23.9199 30.9788 23.9999 30.6925 24 30.4006V1.60103C24.0002 1.309 23.9204 1.02249 23.7694 0.772539C23.6183 0.522591 23.4018 0.318744 23.1431 0.183092C22.8845 0.0474388 22.5936 -0.0148465 22.3021 0.00298631C22.0105 0.0208191 21.7294 0.11809 21.4893 0.284256L0.686456 14.684C0.474521 14.8319 0.301438 15.0288 0.181925 15.2579C0.0624107 15.487 0 15.7416 0 16C0 16.2584 0.0624107 16.513 0.181925 16.7421C0.301438 16.9712 0.474521 17.1681 0.686456 17.316Z" fill="white"/>
</svg>
