<svg width="38" height="38" viewBox="0 0 38 38" fill="none" xmlns="http://www.w3.org/2000/svg">
<g clip-path="url(#clip0_915_95)">
<path fill-rule="evenodd" clip-rule="evenodd" d="M3.25455 36.4167C2.33152 36.4167 1.58325 35.6643 1.58325 34.7362V3.26388C1.58325 2.33576 2.33152 1.58337 3.25455 1.58337H34.7453C35.6683 1.58337 36.4166 2.33576 36.4166 3.26388V34.7362C36.4166 35.6643 35.6683 36.4167 34.7453 36.4167C33.6311 36.4167 23.1342 36.4167 3.25455 36.4167Z" stroke="#2A8FD1" stroke-width="3" stroke-linecap="round" stroke-linejoin="round"/>
<path fill-rule="evenodd" clip-rule="evenodd" d="M30.6071 14.1605H27.1601H26.7528C25.684 14.1605 24.8176 15.027 24.8176 16.0957V19.9672H30.6071L29.7592 25.7708H24.8176V36.4167H18.451V25.7708H13.1946V19.9672H18.3831L18.451 14.4585L18.4321 12.4842C18.4053 9.69615 20.6437 7.41434 23.4317 7.38756C23.4479 7.38741 23.464 7.38733 23.4802 7.38733H30.6071V14.1605Z" fill="#2A8FD1"/>
</g>
<defs>
<clipPath id="clip0_915_95">
<rect width="38" height="38" fill="white"/>
</clipPath>
</defs>
</svg>
