<svg width="38" height="38" viewBox="0 0 38 38" fill="none" xmlns="http://www.w3.org/2000/svg">
<path fill-rule="evenodd" clip-rule="evenodd" d="M11.8195 1.68787C13.6768 1.60237 14.2689 1.58337 18.9999 1.58337C23.7309 1.58337 24.3231 1.60396 26.1788 1.68787C28.0344 1.77179 29.3011 2.06787 30.4094 2.49696C31.57 2.93554 32.6229 3.62112 33.4937 4.50779C34.3804 5.37704 35.0644 6.42837 35.5014 7.59054C35.9321 8.69887 36.2266 9.96554 36.3121 11.818C36.3976 13.6785 36.4166 14.2706 36.4166 19C36.4166 23.731 36.396 24.3232 36.3121 26.1805C36.2282 28.033 35.9321 29.2996 35.5014 30.408C35.0644 31.5703 34.3793 32.6234 33.4937 33.4939C32.6229 34.3805 31.57 35.0645 30.4094 35.5015C29.3011 35.9322 28.0344 36.2267 26.1819 36.3122C24.3231 36.3977 23.7309 36.4167 18.9999 36.4167C14.2689 36.4167 13.6768 36.3961 11.8195 36.3122C9.967 36.2283 8.70034 35.9322 7.592 35.5015C6.42971 35.0645 5.37663 34.3794 4.50609 33.4939C3.62002 32.6241 2.93433 31.5715 2.49684 30.4095C2.06775 29.3012 1.77325 28.0345 1.68775 26.182C1.60225 24.3216 1.58325 23.7295 1.58325 19C1.58325 14.269 1.60384 13.6769 1.68775 11.8212C1.77167 9.96554 2.06775 8.69887 2.49684 7.59054C2.93498 6.4285 3.62119 5.37595 4.50767 4.50621C5.37698 3.62033 6.429 2.93466 7.59042 2.49696C8.69875 2.06787 9.96542 1.77337 11.8179 1.68787H11.8195ZM26.0378 4.82287C24.2012 4.73896 23.6502 4.72154 18.9999 4.72154C14.3497 4.72154 13.7987 4.73896 11.962 4.82287C10.2631 4.90046 9.34159 5.18387 8.72725 5.42296C7.915 5.73962 7.33392 6.11487 6.72434 6.72446C6.14649 7.28662 5.70179 7.97099 5.42284 8.72737C5.18375 9.34171 4.90034 10.2632 4.82275 11.9621C4.73884 13.7988 4.72142 14.3498 4.72142 19C4.72142 23.6503 4.73884 24.2013 4.82275 26.038C4.90034 27.7369 5.18375 28.6584 5.42284 29.2727C5.7015 30.028 6.14642 30.7135 6.72434 31.2756C7.28642 31.8535 7.972 32.2985 8.72725 32.5771C9.34159 32.8162 10.2631 33.0996 11.962 33.1772C13.7987 33.2611 14.3481 33.2785 18.9999 33.2785C23.6518 33.2785 24.2012 33.2611 26.0378 33.1772C27.7367 33.0996 28.6583 32.8162 29.2726 32.5771C30.0848 32.2605 30.6659 31.8852 31.2755 31.2756C31.8534 30.7135 32.2983 30.028 32.577 29.2727C32.8161 28.6584 33.0995 27.7369 33.1771 26.038C33.261 24.2013 33.2784 23.6503 33.2784 19C33.2784 14.3498 33.261 13.7988 33.1771 11.9621C33.0995 10.2632 32.8161 9.34171 32.577 8.72737C32.2603 7.91512 31.8851 7.33404 31.2755 6.72446C30.7133 6.14665 30.0289 5.70196 29.2726 5.42296C28.6583 5.18387 27.7367 4.90046 26.0378 4.82287ZM16.7753 24.3691C18.0177 24.8863 19.4011 24.9561 20.6892 24.5666C21.9773 24.1771 23.0903 23.3525 23.838 22.2336C24.5856 21.1147 24.9217 19.7709 24.7887 18.4318C24.6556 17.0927 24.0618 15.8412 23.1087 14.8913C22.501 14.284 21.7663 13.8191 20.9574 13.5299C20.1486 13.2406 19.2856 13.1344 18.4307 13.2187C17.5758 13.303 16.7502 13.5758 16.0134 14.0175C15.2766 14.4592 14.6469 15.0587 14.1696 15.773C13.6924 16.4872 13.3794 17.2984 13.2532 18.1481C13.1271 18.9979 13.1909 19.865 13.4401 20.6871C13.6893 21.5092 14.1177 22.2658 14.6944 22.9025C15.2711 23.5392 15.9818 24.0401 16.7753 24.3691ZM12.6698 12.6699C13.501 11.8386 14.4879 11.1792 15.5741 10.7293C16.6602 10.2794 17.8243 10.0478 18.9999 10.0478C20.1755 10.0478 21.3396 10.2794 22.4258 10.7293C23.5119 11.1792 24.4988 11.8386 25.3301 12.6699C26.1614 13.5012 26.8208 14.488 27.2707 15.5742C27.7206 16.6603 27.9521 17.8244 27.9521 19C27.9521 20.1757 27.7206 21.3398 27.2707 22.4259C26.8208 23.512 26.1614 24.4989 25.3301 25.3302C23.6512 27.0091 21.3742 27.9522 18.9999 27.9522C16.6256 27.9522 14.3486 27.0091 12.6698 25.3302C10.9909 23.6513 10.0477 21.3743 10.0477 19C10.0477 16.6258 10.9909 14.3487 12.6698 12.6699ZM29.9376 11.381C30.1436 11.1867 30.3085 10.953 30.4226 10.6938C30.5366 10.4346 30.5975 10.1552 30.6017 9.87201C30.6058 9.58885 30.5531 9.30774 30.4466 9.04532C30.3401 8.78291 30.1821 8.54452 29.9819 8.34427C29.7816 8.14402 29.5432 7.98599 29.2808 7.87953C29.0184 7.77306 28.7373 7.72034 28.4541 7.72446C28.1709 7.72859 27.8915 7.78949 27.6323 7.90356C27.3731 8.01763 27.1394 8.18254 26.9451 8.38854C26.5672 8.78917 26.3603 9.32132 26.3683 9.87201C26.3763 10.4227 26.5986 10.9486 26.9881 11.338C27.3775 11.7275 27.9034 11.9498 28.4541 11.9578C29.0048 11.9659 29.537 11.759 29.9376 11.381Z" fill="#2EA6EA"/>
</svg>
