<svg width="38" height="38" viewBox="0 0 38 38" fill="none" xmlns="http://www.w3.org/2000/svg">
<path d="M13.4742 31.6666H13.3475C10.7958 31.6443 8.2809 31.0548 5.98502 29.9408C5.56271 29.7424 5.21498 29.4141 4.99275 29.0038C4.77053 28.5935 4.68546 28.1229 4.75002 27.6608C4.82023 27.1956 5.03564 26.7644 5.36547 26.4289C5.69531 26.0933 6.12272 25.8706 6.58669 25.7925C8.00949 25.6026 9.37824 25.123 10.6084 24.3833C8.47269 22.7135 6.82855 20.4971 5.85015 17.9689C4.87176 15.4407 4.59557 12.6949 5.05086 10.0225C5.11259 9.59915 5.29463 9.2025 5.57533 8.8797C5.85603 8.55689 6.22356 8.32153 6.63419 8.20162C7.03369 8.07615 7.46124 8.07079 7.86376 8.1862C8.26627 8.30161 8.62603 8.5327 8.89836 8.85079C9.82303 10.0633 10.985 11.0747 12.3135 11.8233C13.6419 12.5719 15.1089 13.042 16.625 13.205C16.6974 11.3396 17.4991 9.57709 18.8575 8.29662C19.5358 7.64709 20.3366 7.13906 21.2132 6.80212C22.0898 6.46518 23.0247 6.30608 23.9635 6.33408C24.9022 6.36208 25.8259 6.57662 26.6809 6.96521C27.5359 7.3538 28.305 7.90865 28.9434 8.59745C29.1097 8.74449 29.3163 8.8382 29.5365 8.86643C29.7567 8.89466 29.9803 8.85611 30.1784 8.75579C30.5559 8.57773 30.9762 8.51071 31.3904 8.56253C31.8046 8.61435 32.1955 8.78288 32.5175 9.04846C32.8395 9.31403 33.0793 9.6657 33.209 10.0624C33.3388 10.4592 33.353 10.8846 33.25 11.2891C32.8848 12.7935 32.1929 14.199 31.2234 15.4058C31.0097 19.91 29.0239 24.147 25.699 27.1931C22.3741 30.2392 17.9798 31.8472 13.4742 31.6666ZM13.4742 28.5H13.6009C15.4417 28.5633 17.2769 28.2605 18.9999 27.6093C20.7229 26.958 22.2995 25.9712 23.6383 24.7061C24.9771 23.441 26.0514 21.9227 26.799 20.2392C27.5466 18.5558 27.9525 16.7406 27.9934 14.8991C28.0195 14.3944 28.2276 13.9163 28.5792 13.5533C28.9654 13.0644 29.2947 12.5332 29.5609 11.97C28.9905 11.971 28.4263 11.8517 27.9051 11.6198C27.384 11.3879 26.9177 11.0486 26.5367 10.6241C26.1703 10.2608 25.7351 9.97428 25.2566 9.78125C24.7781 9.58822 24.2659 9.49259 23.75 9.49995C23.2289 9.48648 22.7103 9.57605 22.224 9.76353C21.7376 9.95102 21.2931 10.2327 20.9159 10.5925C20.4069 11.0754 20.0338 11.6835 19.8337 12.3559C19.6337 13.0284 19.6137 13.7415 19.7759 14.4241L20.1875 16.2291L18.335 16.3558C16.4368 16.5106 14.5275 16.2509 12.7395 15.5948C10.9516 14.9386 9.32757 13.9017 7.98002 12.5558C7.92223 14.6401 8.44362 16.6996 9.48624 18.5053C10.5289 20.311 12.0518 21.7922 13.8859 22.7841L15.39 23.6391L14.3925 25.0641C13.3138 26.4789 11.8357 27.5378 10.1492 28.1041C11.2311 28.3753 12.343 28.5083 13.4584 28.5H13.4742Z" fill="#2A8FD1"/>
</svg>
