<svg width="24" height="32" viewBox="0 0 24 32" fill="none" xmlns="http://www.w3.org/2000/svg">
<path d="M23.3135 17.316L2.51074 31.7157C2.27067 31.8818 1.98972 31.9791 1.69833 31.997C1.40694 32.0149 1.1162 31.9527 0.857603 31.8173C0.599003 31.6818 0.382394 31.4782 0.231228 31.2285C0.0800616 30.9788 9.99868e-05 30.6925 1.4619e-06 30.4006V1.60103C-0.000192077 1.309 0.079556 1.02249 0.230605 0.772539C0.381654 0.522591 0.598242 0.318744 0.856895 0.183092C1.11555 0.0474388 1.4064 -0.0148465 1.69793 0.00298631C1.98946 0.0208191 2.27056 0.11809 2.51074 0.284256L23.3135 14.684C23.5255 14.8319 23.6986 15.0288 23.8181 15.2579C23.9376 15.487 24 15.7416 24 16C24 16.2584 23.9376 16.513 23.8181 16.7421C23.6986 16.9712 23.5255 17.1681 23.3135 17.316V17.316Z" fill="white"/>
</svg>
