<svg width="38" height="38" viewBox="0 0 38 38" fill="none" xmlns="http://www.w3.org/2000/svg">
<path d="M22.1667 18.9999L16.625 22.1666V15.8333L22.1667 18.9999Z" fill="#2EA6EA" stroke="#2EA6EA" stroke-width="3.5" stroke-linecap="round" stroke-linejoin="round"/>
<path d="M3.16675 20.1194V17.879C3.16675 13.2952 3.16675 11.0026 4.59966 9.52847C6.03416 8.0528 8.292 7.98947 12.8061 7.86122C14.9436 7.80105 17.1286 7.7583 19.0001 7.7583C20.87 7.7583 23.055 7.80105 25.1941 7.86122C29.7082 7.98947 31.966 8.0528 33.3989 9.52847C34.8334 11.0026 34.8334 13.2968 34.8334 17.879V20.1194C34.8334 24.7047 34.8334 26.9958 33.4005 28.4715C31.966 29.9456 29.7097 30.0105 25.1941 30.1371C23.0566 30.1989 20.8716 30.2416 19.0001 30.2416C16.935 30.2354 14.8702 30.2006 12.8061 30.1371C8.292 30.0105 6.03416 29.9471 4.59966 28.4715C3.16675 26.9958 3.16675 24.7031 3.16675 20.121V20.1194Z" stroke="#2EA6EA" stroke-width="3.5"/>
</svg>
